<mxfile host="app.diagrams.net" modified="2024-07-21T14:06:12.000Z" agent="Mozilla/5.0 (Windows NT 10.0; Win64; x64) AppleWebKit/537.36 (KHTML, like Gecko) Chrome/126.0.0.0 Safari/537.36" version="24.7.1" etag="ZWfH1gTJHVsVGC4pVzfg" type="github">
  <diagram name="PÃ¡gina-1" id="d2UB_4B9LIL0A6Wql5jR">
    <mxGraphModel>
      <root>
        <mxCell id="0" />
        <mxCell id="1" parent="0" />
      </root>
    </mxGraphModel>
  </diagram>
</mxfile>
